<svg preserveAspectRatio="xMidYMid" xmlns:xlink="http://www.w3.org/1999/xlink" xmlns="http://www.w3.org/2000/svg" viewBox="0 0 256 351" height="2500" width="1823"><defs><path id="a" d="M1.253 280.732l1.605-3.131 99.353-188.518-44.15-83.475C54.392-1.283 45.074.474 43.87 8.188L1.253 280.732z"></path><filter id="b" filterUnits="objectBoundingBox" height="200%" width="200%" y="-50%" x="-50%"><feGaussianBlur result="shadowBlurInner1" in="SourceAlpha" stdDeviation="17.5"></feGaussianBlur><feOffset result="shadowOffsetInner1" in="shadowBlurInner1"></feOffset><feComposite result="shadowInnerInner1" k3="1" k2="-1" operator="arithmetic" in2="SourceAlpha" in="shadowOffsetInner1"></feComposite><feColorMatrix in="shadowInnerInner1" values="0 0 0 0 0 0 0 0 0 0 0 0 0 0 0 0 0 0 0.06 0"></feColorMatrix></filter><path id="c" d="M134.417 148.974l32.039-32.812-32.039-61.007c-3.042-5.791-10.433-6.398-13.443-.59l-17.705 34.109-.53 1.744 31.678 58.556z"></path><filter id="d" filterUnits="objectBoundingBox" height="200%" width="200%" y="-50%" x="-50%"><feGaussianBlur result="shadowBlurInner1" in="SourceAlpha" stdDeviation="3.5"></feGaussianBlur><feOffset result="shadowOffsetInner1" in="shadowBlurInner1" dy="-9" dx="1"></feOffset><feComposite result="shadowInnerInner1" k3="1" k2="-1" operator="arithmetic" in2="SourceAlpha" in="shadowOffsetInner1"></feComposite><feColorMatrix in="shadowInnerInner1" values="0 0 0 0 0 0 0 0 0 0 0 0 0 0 0 0 0 0 0.09 0"></feColorMatrix></filter></defs><path fill="#FFC24A" d="M0 282.998l2.123-2.972L102.527 89.512l.212-2.017L58.48 4.358C54.77-2.606 44.33-.845 43.114 6.951L0 282.998z"></path><use xlink:href="#a" fill-rule="evenodd" fill="#FFA712"></use><use xlink:href="#a" filter="url(#b)"></use><path fill="#F4BD62" d="M135.005 150.38l32.955-33.75-32.965-62.93c-3.129-5.957-11.866-5.975-14.962 0L102.42 87.287v2.86l32.584 60.233z"></path><use xlink:href="#c" fill-rule="evenodd" fill="#FFA50E"></use><use xlink:href="#c" filter="url(#d)"></use><path d="M0 282.998l.962-.968 3.496-1.42 128.477-128 1.628-4.431-32.05-61.074z" fill="#F6820C"></path><path fill="#FDE068" d="M139.121 347.551l116.275-64.847-33.204-204.495c-1.039-6.398-8.888-8.927-13.468-4.34L0 282.998l115.608 64.548a24.126 24.126 0 0 0 23.513.005"></path><path fill="#FCCA3F" d="M254.354 282.16L221.402 79.218c-1.03-6.35-7.558-8.977-12.103-4.424L1.29 282.6l114.339 63.908a23.943 23.943 0 0 0 23.334.006l115.392-64.355z"></path><path fill="#EEAB37" d="M139.12 345.64a24.126 24.126 0 0 1-23.512-.005L.931 282.015l-.93.983 115.607 64.548a24.126 24.126 0 0 0 23.513.005l116.275-64.847-.285-1.752-115.99 64.689z"></path></svg>
