<svg preserveAspectRatio="xMidYMid meet" viewBox="0 0 1139.000000 314.000000" height="314.000000pt" width="1139.000000pt" xmlns="http://www.w3.org/2000/svg" version="1.0">

<g stroke="none" fill="#000000" transform="translate(0.000000,314.000000) scale(0.100000,-0.100000)">
<path d="M688 2819 c-212 -275 -247 -324 -306 -426 -78 -138 -136 -283 -169
-426 -33 -142 -37 -363 -9 -492 36 -166 102 -321 199 -465 55 -82 176 -230
213 -259 13 -10 40 -33 61 -51 l37 -33 13 -131 c6 -72 12 -139 13 -149 0 -15
7 -18 43 -15 l42 3 15 145 15 145 89 85 c286 274 436 599 436 948 0 349 -123
645 -423 1020 -52 64 -111 141 -131 170 -21 28 -39 52 -41 52 -2 0 -46 -54
-97 -121z m128 -1427 l28 -633 -32 -32 -32 -32 -29 30 -30 30 29 625 c16 344
30 631 30 639 0 8 2 12 4 10 2 -2 16 -289 32 -637z"></path>
<path d="M1994 2036 c-3 -8 -4 -25 -2 -38 2 -19 10 -24 43 -26 22 -2 49 -11
59 -20 18 -16 19 -36 13 -587 l-6 -570 -26 -22 c-16 -14 -39 -23 -61 -23 -32
0 -34 -2 -34 -35 l0 -35 170 0 170 0 0 35 c0 30 -3 35 -24 35 -13 0 -34 9 -47
19 l-24 19 -3 523 c-1 304 1 519 6 514 5 -6 117 -268 248 -584 254 -611 260
-621 303 -575 10 10 121 267 246 569 126 303 232 554 237 559 6 8 16 -852 11
-979 -2 -34 -34 -65 -69 -65 -21 0 -24 -5 -24 -35 l0 -35 195 0 195 0 0 35 c0
33 -2 35 -35 35 -69 0 -71 6 -78 295 -4 142 -7 395 -7 562 0 357 1 363 83 363
37 0 37 0 37 40 l0 40 -167 0 -168 0 -220 -536 c-121 -294 -222 -537 -226
-539 -3 -3 -105 237 -226 533 l-221 537 -171 3 c-142 2 -172 0 -177 -12z"></path>
<path d="M8440 2011 l0 -41 39 0 c31 0 44 -6 60 -26 21 -26 21 -35 21 -584 l0
-558 -31 -26 c-18 -15 -43 -26 -60 -26 -27 0 -29 -3 -29 -36 l0 -36 313 4
c306 4 313 5 392 31 113 37 197 91 275 174 76 82 130 181 156 288 23 95 23
287 1 375 -61 237 -230 408 -464 472 -69 18 -113 21 -375 26 l-298 4 0 -41z
m589 -82 c173 -40 316 -194 356 -386 8 -37 15 -120 15 -184 0 -194 -44 -322
-149 -432 -93 -98 -218 -146 -378 -147 -62 0 -76 3 -100 24 l-28 24 -3 514
c-1 282 0 523 3 536 13 51 37 62 143 62 53 0 117 -5 141 -11z"></path>
<path d="M9740 2011 c0 -40 1 -41 34 -41 25 0 40 -7 55 -26 21 -26 21 -35 21
-584 l0 -558 -31 -26 c-18 -15 -43 -26 -60 -26 -27 0 -29 -3 -29 -36 l0 -35
363 3 c411 4 435 8 557 90 166 111 208 334 94 500 -32 46 -92 86 -172 114
l-63 22 60 42 c231 162 164 479 -120 572 -58 19 -92 22 -386 26 l-323 4 0 -41z
m616 -86 c57 -17 115 -70 139 -129 26 -62 21 -168 -11 -233 -48 -99 -118 -125
-319 -121 l-130 3 -3 195 c-4 304 -7 300 161 300 71 0 132 -6 163 -15z m88
-606 c54 -18 130 -90 151 -141 41 -103 11 -243 -67 -314 -73 -65 -114 -77
-284 -82 -149 -4 -150 -4 -180 21 l-29 25 -3 243 c-2 133 -1 248 3 256 4 13
34 14 188 10 115 -3 196 -9 221 -18z"></path>
<path d="M4101 1654 c-79 -21 -148 -62 -211 -124 -100 -100 -140 -207 -140
-371 0 -273 170 -468 436 -501 374 -47 649 275 554 648 -44 173 -165 296 -339
348 -68 20 -225 20 -300 0z m233 -99 c147 -39 233 -162 244 -352 14 -257 -100
-424 -301 -440 -184 -15 -318 109 -349 326 -34 228 73 429 249 470 57 14 93
13 157 -4z"></path>
<path d="M5423 1656 c-67 -22 -128 -62 -171 -112 l-40 -47 -10 34 c-6 19 -16
53 -22 77 -9 37 -14 42 -39 42 -16 0 -65 -21 -110 -46 -64 -36 -81 -51 -81
-69 0 -18 7 -24 36 -28 67 -11 64 6 64 -378 l0 -348 -22 -15 c-12 -9 -35 -16
-50 -16 -25 0 -28 -3 -28 -35 l0 -35 185 0 185 0 0 35 c0 32 -2 35 -30 35 -17
0 -39 9 -51 21 -20 20 -20 29 -17 287 3 264 3 268 29 322 56 120 145 181 262
181 72 0 111 -15 151 -58 51 -55 56 -91 56 -415 0 -285 -1 -299 -20 -318 -11
-11 -33 -20 -50 -20 -28 0 -30 -3 -30 -35 l0 -35 185 0 185 0 0 35 c0 32 -3
35 -28 35 -15 0 -38 7 -50 16 -22 15 -22 17 -22 308 0 290 -8 383 -36 438 -25
49 -76 99 -128 126 -44 22 -65 26 -156 29 -69 2 -119 -2 -147 -11z"></path>
<path d="M6465 1653 c-207 -74 -318 -257 -271 -444 18 -70 72 -158 117 -190
l28 -20 -68 -92 c-86 -117 -94 -132 -86 -168 8 -35 39 -59 79 -59 l30 0 -41
-42 c-53 -55 -73 -97 -80 -164 -15 -145 83 -258 263 -300 104 -24 284 -15 387
20 193 65 291 181 290 341 -1 107 -65 191 -179 236 -55 22 -75 23 -326 27
l-267 4 52 69 c36 48 56 67 67 63 8 -3 43 -11 78 -17 141 -25 307 28 402 129
76 81 95 129 95 244 0 81 -4 103 -26 150 -14 31 -41 73 -60 95 l-34 38 35 -6
c19 -3 68 -9 108 -13 l73 -7 -3 49 -3 49 -190 7 c-104 3 -242 9 -305 12 -96 5
-123 3 -165 -11z m267 -120 c89 -48 127 -122 127 -243 1 -121 -45 -200 -144
-246 -148 -70 -311 17 -345 183 -50 237 161 415 362 306z m90 -865 c80 -24
130 -119 108 -207 -15 -62 -42 -103 -87 -134 -73 -50 -111 -61 -223 -61 -93
-1 -111 2 -161 25 -31 15 -68 42 -82 61 -68 89 -47 229 46 303 31 24 36 25
196 25 97 0 180 -5 203 -12z"></path>
<path d="M7633 1655 c-157 -43 -285 -166 -333 -324 -25 -79 -30 -219 -10 -301
39 -165 157 -294 321 -351 85 -29 235 -31 327 -4 150 43 277 167 323 315 90
289 -49 577 -319 660 -77 24 -229 26 -309 5z m277 -116 c28 -12 70 -43 98 -73
66 -69 93 -142 99 -266 14 -256 -101 -421 -302 -438 -192 -15 -332 126 -352
354 -15 181 59 353 179 415 85 44 189 47 278 8z"></path>
<path d="M11014 914 c-80 -39 -86 -168 -10 -218 31 -20 107 -21 145 -1 32 16
61 69 61 113 0 35 -36 92 -70 109 -34 17 -88 16 -126 -3z m129 -25 c40 -31 54
-87 32 -132 -36 -77 -142 -85 -185 -14 -31 50 -26 93 14 133 41 41 97 47 139
13z"></path>
<path d="M11028 863 c7 -3 12 -25 12 -58 0 -33 -5 -55 -12 -58 -7 -3 1 -6 18
-6 29 -1 31 1 27 27 -4 26 -4 26 11 8 9 -11 16 -23 16 -28 0 -4 9 -8 21 -8
l21 0 -20 27 c-18 25 -18 29 -5 50 23 34 2 53 -56 52 -25 0 -40 -3 -33 -6z
m67 -28 c0 -10 -6 -20 -12 -22 -8 -3 -13 5 -13 22 0 17 5 25 13 23 6 -3 12
-13 12 -23z"></path>
</g>
</svg>
