<?xml version="1.0" encoding="UTF-8"?>
<svg xmlns="http://www.w3.org/2000/svg" xmlns:xlink="http://www.w3.org/1999/xlink" width="112px" height="21px" viewBox="0 0 114 21" version="1.1">
<g id="surface1">
<path style=" stroke:none;fill-rule:evenodd;fill:rgb(0%,0%,0%);fill-opacity:1;" d="M 30.515625 10.332031 C 30.5625 10.007812 30.457031 9.664062 30.207031 9.414062 L 23.566406 2.757812 C 23.140625 2.332031 22.453125 2.332031 22.027344 2.757812 C 21.597656 3.183594 21.601562 3.871094 22.027344 4.296875 L 28.046875 10.332031 L 22.027344 16.363281 C 21.605469 16.789062 21.601562 17.480469 22.027344 17.90625 C 22.457031 18.335938 23.140625 18.332031 23.566406 17.90625 L 30.207031 11.25 C 30.457031 11 30.558594 10.660156 30.515625 10.332031 Z M 0.0117188 10.332031 C -0.0351562 10.007812 0.0703125 9.664062 0.320312 9.414062 L 6.960938 2.757812 C 7.382812 2.332031 8.074219 2.332031 8.5 2.757812 C 8.925781 3.183594 8.921875 3.871094 8.5 4.296875 L 2.476562 10.332031 L 8.496094 16.363281 C 8.921875 16.789062 8.921875 17.480469 8.496094 17.90625 C 8.070312 18.335938 7.382812 18.332031 6.960938 17.90625 L 0.320312 11.25 C 0.0703125 11 -0.03125 10.660156 0.0117188 10.332031 Z M 17.878906 0.574219 C 18.042969 0.121094 18.539062 -0.113281 18.996094 0.0546875 C 19.449219 0.21875 19.683594 0.71875 19.519531 1.171875 L 12.648438 20.089844 C 12.484375 20.542969 11.988281 20.777344 11.53125 20.609375 C 11.078125 20.445312 10.84375 19.945312 11.007812 19.492188 Z M 17.878906 0.574219 "/>
<path style=" stroke:none;fill-rule:nonzero;fill:rgb(0%,0%,0%);fill-opacity:1;" d="M 43.917969 8.761719 L 43.917969 5.558594 L 47.113281 5.558594 L 47.113281 15.15625 L 43.917969 15.15625 L 43.917969 11.964844 L 37.730469 11.964844 L 37.730469 14.089844 L 38.796875 14.089844 L 38.796875 13.019531 L 39.859375 13.019531 L 39.859375 15.15625 L 36.664062 15.15625 L 36.664062 10.882812 L 44.996094 10.882812 L 44.996094 14.089844 L 46.050781 14.089844 L 46.050781 6.625 L 44.996094 6.625 L 44.996094 9.832031 L 38.796875 9.832031 L 38.796875 6.625 L 37.730469 6.625 L 37.730469 9.832031 L 36.664062 9.832031 L 36.664062 5.558594 L 39.859375 5.558594 L 39.859375 8.761719 Z M 55.773438 11.953125 L 56.390625 10.882812 L 58.246094 14.089844 L 59.476562 14.089844 C 59.203125 13.648438 56.609375 9.199219 56.390625 8.761719 L 53.710938 13.417969 L 52.714844 15.15625 L 49.027344 15.15625 C 49.230469 14.8125 50.609375 12.40625 51.9375 10.089844 C 52.714844 8.734375 53.574219 7.214844 54.546875 5.558594 L 55.773438 5.558594 L 53.234375 9.96875 L 50.871094 14.089844 L 52.101562 14.089844 C 53.78125 11.117188 54.832031 9.363281 56.390625 6.625 C 56.484375 6.792969 61.292969 15.144531 61.320312 15.15625 L 57.632812 15.15625 Z M 68.683594 10.996094 L 71.742188 5.558594 L 75.128906 5.558594 L 75.128906 15.15625 L 71.933594 15.15625 L 71.933594 11.570312 L 69.898438 15.15625 L 67.453125 15.15625 L 64.351562 9.707031 L 64.351562 7.695312 L 68.082031 14.089844 L 69.285156 14.089844 L 73 7.695312 L 73 14.089844 L 74.0625 14.089844 L 74.0625 6.625 L 72.355469 6.625 L 68.65625 13.035156 L 65.007812 6.625 L 63.300781 6.625 L 63.300781 14.089844 L 64.351562 14.089844 L 64.351562 12.074219 L 65.417969 13.910156 L 65.417969 15.15625 L 62.234375 15.15625 L 62.234375 5.558594 L 65.621094 5.558594 Z M 84.269531 5.558594 L 87.410156 5.558594 L 87.410156 10.144531 L 87.394531 10.144531 C 87.285156 12.9375 85.03125 15.15625 82.21875 15.15625 C 79.378906 15.15625 77.042969 12.816406 77.042969 9.96875 L 77.042969 8.734375 L 81.589844 8.734375 L 81.589844 9.777344 L 78.105469 9.777344 L 78.105469 9.96875 C 78.105469 12.238281 79.953125 14.089844 82.21875 14.089844 C 84.472656 14.089844 86.289062 12.28125 86.332031 10.035156 L 86.332031 6.613281 L 85.304688 6.613281 L 85.304688 9.996094 C 85.304688 11.691406 83.898438 13.0625 82.21875 13.0625 C 80.796875 13.0625 79.625 12.089844 79.253906 10.816406 L 80.359375 10.816406 C 80.675781 11.527344 81.386719 12.019531 82.21875 12.019531 C 83.351562 12.019531 84.269531 11.105469 84.269531 9.96875 Z M 96.070312 11.953125 L 96.683594 10.882812 L 98.542969 14.089844 L 99.769531 14.089844 C 99.496094 13.648438 96.902344 9.199219 96.683594 8.761719 L 94.007812 13.417969 L 93.007812 15.15625 L 89.320312 15.15625 C 89.527344 14.8125 90.90625 12.40625 92.230469 10.089844 C 93.007812 8.734375 93.871094 7.214844 94.839844 5.558594 L 96.070312 5.558594 L 93.527344 9.96875 L 91.164062 14.089844 L 92.394531 14.089844 C 94.074219 11.117188 95.125 9.363281 96.683594 6.625 C 96.78125 6.792969 101.585938 15.144531 101.613281 15.15625 L 97.925781 15.15625 Z M 110.78125 8.761719 L 110.78125 5.558594 L 113.976562 5.558594 L 113.976562 15.15625 L 110.78125 15.15625 L 110.78125 11.964844 L 104.59375 11.964844 L 104.59375 14.089844 L 105.660156 14.089844 L 105.660156 13.019531 L 106.722656 13.019531 L 106.722656 15.15625 L 103.527344 15.15625 L 103.527344 10.882812 L 111.859375 10.882812 L 111.859375 14.089844 L 112.910156 14.089844 L 112.910156 6.625 L 111.859375 6.625 L 111.859375 9.832031 L 105.660156 9.832031 L 105.660156 6.625 L 104.59375 6.625 L 104.59375 9.832031 L 103.527344 9.832031 L 103.527344 5.558594 L 106.722656 5.558594 L 106.722656 8.761719 Z M 110.78125 8.761719 "/>
</g>
</svg>
